<?xml version="1.0" standalone="no"?>
<svg xmlns="http://www.w3.org/2000/svg" viewBox="0 0 311.473 36" width="311.473" height="36"><g fill="#000000" color="#000000" transform="translate(0 3.9999999999999982) scale(0.2800001)"><svg width="100.0" height="100.0" x="0.0" y="0.0" viewBox="0 0 100 100"><path fill="currentColor" d="M50.627,21.293c-1.133-3.25-3.831-5.541-6.991-6.355c0.167-1,0.124-2.051-0.235-3.081  c-1.162-3.328-4.863-5.103-8.271-3.971c-1.522,0.508-2.703,1.526-3.466,2.779c-2.586-3.123-6.973-4.507-11.09-3.138  c-4.755,1.583-7.5,6.289-6.68,10.973c-0.819-0.046-1.659,0.053-2.48,0.326c-3.405,1.132-5.225,4.752-4.064,8.078  c0.721,2.062,2.418,3.525,4.416,4.074c-1.143,1.017-1.63,2.629-1.101,4.151c0.711,2.04,2.982,3.126,5.068,2.431  c0.214-0.071,0.407-0.167,0.602-0.269c1.611,3.745,5.93,5.688,9.927,4.358c1.648-0.549,2.986-1.58,3.923-2.871  c1.291,3.102,4.827,4.731,8.111,3.637c3.408-1.135,5.227-4.754,4.066-8.082c-0.012-0.027-0.029-0.048-0.039-0.08  c0.67-0.082,1.345-0.231,2.011-0.451C49.605,32.044,52.426,26.447,50.627,21.293"></path><path fill="currentColor" d="M35,45v-1.036c-2.249-0.118-3.688-1.028-4.58-2.964c-0.864,1.074-2.493,1.596-4.013,2.055  c-0.465,0.138-0.94,0.232-1.407,0.289V45l-2,51h14L35,45z"></path><path fill="currentColor" d="M61,23l11,71h2V68c0,0,17-8,20,17l1,10h2V69c0,0,2-11-23-18L64,16l-13,3l1,3L61,23z"></path><polygon fill="currentColor" points="62.667,17 61.833,13 62.667,13 63.5,17 "></polygon><circle fill="currentColor" cx="62.25" cy="13.25" r="1.25"></circle><polygon fill="currentColor" points="62.058,17.277 59.03,14.532 59.704,14.042 62.731,16.787 "></polygon><circle fill="currentColor" cx="59.515" cy="14.489" r="1.25"></circle></svg></g><path fill="#069827" fill-rule="nonzero" d="M7.44 16.80Q5.21 16.80 3.52 15.72Q1.82 14.64 0.91 12.78Q0 10.92 0 8.64L0 8.64Q0 6.29 1.00 4.30Q1.99 2.30 3.71 1.15Q5.42 0 7.44 0L7.44 0Q9.36 0 10.81 0.54Q12.26 1.08 12.96 1.92L12.96 1.92Q13.37 2.42 13.46 3.25Q13.56 4.08 13.56 5.52L13.56 5.52L13.08 5.52Q12.62 3.19 11.40 2.08Q10.18 0.96 8.16 0.96L8.16 0.96Q5.57 0.96 3.98 2.78Q2.40 4.61 2.40 8.64L2.40 8.64Q2.40 10.54 3.01 12.17Q3.62 13.80 4.92 14.82Q6.22 15.84 8.16 15.84L8.16 15.84Q9.91 15.84 11.22 15Q12.53 14.16 13.56 12.48L13.56 12.48L14.04 12.84Q12.94 15 11.32 15.90Q9.70 16.80 7.44 16.80L7.44 16.80ZM21.26 16.56Q19.63 16.56 18.43 15.78Q17.23 15 16.61 13.66Q15.98 12.31 15.98 10.68L15.98 10.68Q15.98 9.05 16.61 7.70Q17.23 6.36 18.43 5.58Q19.63 4.80 21.26 4.80L21.26 4.80Q22.90 4.80 24.10 5.58Q25.30 6.36 25.92 7.70Q26.54 9.05 26.54 10.68L26.54 10.68Q26.54 12.31 25.92 13.66Q25.30 15 24.10 15.78Q22.90 16.56 21.26 16.56L21.26 16.56ZM21.26 15.60Q22.15 15.60 22.84 14.95Q23.52 14.30 23.89 13.18Q24.26 12.05 24.26 10.68L24.26 10.68Q24.26 9.31 23.89 8.18Q23.52 7.06 22.84 6.41Q22.15 5.76 21.26 5.76L21.26 5.76Q20.38 5.76 19.69 6.41Q19.01 7.06 18.64 8.18Q18.26 9.31 18.26 10.68L18.26 10.68Q18.26 12.05 18.64 13.18Q19.01 14.30 19.69 14.95Q20.38 15.60 21.26 15.60L21.26 15.60ZM29.45 16.32L29.45 3.36Q29.45 2.14 29.11 1.55Q28.78 0.96 27.77 0.96L27.77 0.96L27.29 0.96L27.29 0.48L29.45 0.48Q30.34 0.48 30.78 0.71Q31.22 0.94 31.42 1.54Q31.61 2.14 31.61 3.36L31.61 3.36L31.61 16.32L29.45 16.32ZM39.79 16.56Q38.16 16.56 36.96 15.78Q35.76 15 35.14 13.66Q34.51 12.31 34.51 10.68L34.51 10.68Q34.51 9.05 35.14 7.70Q35.76 6.36 36.96 5.58Q38.16 4.80 39.79 4.80L39.79 4.80Q41.42 4.80 42.62 5.58Q43.82 6.36 44.45 7.70Q45.07 9.05 45.07 10.68L45.07 10.68Q45.07 12.31 44.45 13.66Q43.82 15 42.62 15.78Q41.42 16.56 39.79 16.56L39.79 16.56ZM39.79 15.60Q40.68 15.60 41.36 14.95Q42.05 14.30 42.42 13.18Q42.79 12.05 42.79 10.68L42.79 10.68Q42.79 9.31 42.42 8.18Q42.05 7.06 41.36 6.41Q40.68 5.76 39.79 5.76L39.79 5.76Q38.90 5.76 38.22 6.41Q37.54 7.06 37.16 8.18Q36.79 9.31 36.79 10.68L36.79 10.68Q36.79 12.05 37.16 13.18Q37.54 14.30 38.22 14.95Q38.90 15.60 39.79 15.60L39.79 15.60ZM48.07 16.32L48.07 7.92Q48.07 6.70 47.74 6.11Q47.40 5.52 46.39 5.52L46.39 5.52L46.15 5.52L46.15 5.04L48.07 5.04Q48.98 5.04 49.45 5.29Q49.92 5.54 50.11 6.12L50.11 6.12L50.23 6.12Q50.66 5.57 51.40 5.18Q52.13 4.80 53.11 4.80L53.11 4.80Q54.07 4.80 54.55 5.16L54.55 5.16Q54.96 5.47 55.39 6.24L55.39 6.24L54.43 6.96Q54.17 6.60 53.66 6.42Q53.16 6.24 52.51 6.24L52.51 6.24Q51.79 6.24 51.19 6.56Q50.59 6.89 50.23 7.44L50.23 7.44L50.23 16.32L48.07 16.32ZM60.10 16.56Q59.33 16.56 58.54 16.24Q57.74 15.91 57.18 15.17Q56.62 14.42 56.62 13.20L56.62 13.20Q56.62 11.38 58.31 10.61Q60 9.84 62.74 9.84L62.74 9.84L63.46 9.84Q63.46 7.49 62.81 6.62Q62.16 5.76 60.94 5.76L60.94 5.76Q59.86 5.76 59.21 6.22Q58.56 6.67 58.30 7.80L58.30 7.80L57.22 7.80Q57.22 6.98 57.31 6.52Q57.41 6.05 57.82 5.64L57.82 5.64Q58.25 5.21 59.24 5.00Q60.24 4.80 61.42 4.80L61.42 4.80Q63.36 4.80 64.49 5.84Q65.62 6.89 65.62 9.84L65.62 9.84L65.62 16.32L64.42 16.32L63.58 15.24L63.46 15.24Q63.02 15.79 62.18 16.18Q61.34 16.56 60.10 16.56L60.10 16.56ZM61.18 15.48Q61.97 15.48 62.50 15.10Q63.02 14.71 63.46 14.04L63.46 14.04L63.46 10.80L62.74 10.80Q60.96 10.80 59.93 11.46Q58.90 12.12 58.90 13.20L58.90 13.20Q58.90 14.30 59.56 14.89Q60.22 15.48 61.18 15.48L61.18 15.48ZM72.67 16.56Q70.58 16.56 69.47 14.90Q68.35 13.25 68.35 10.68L68.35 10.68Q68.35 8.11 69.52 6.46Q70.68 4.80 72.91 4.80L72.91 4.80Q73.82 4.80 74.52 4.99Q75.22 5.18 75.91 5.52L75.91 5.52L75.91 3.36Q75.91 2.14 75.58 1.55Q75.24 0.96 74.23 0.96L74.23 0.96L73.75 0.96L73.75 0.48L75.91 0.48Q76.80 0.48 77.24 0.71Q77.69 0.94 77.88 1.54Q78.07 2.14 78.07 3.36L78.07 3.36L78.07 16.32L76.87 16.32L76.03 15.24L75.91 15.24Q75.38 15.84 74.68 16.20Q73.97 16.56 72.67 16.56L72.67 16.56ZM73.39 15.60Q74.38 15.60 74.88 15.24Q75.38 14.88 75.91 14.16L75.91 14.16L75.91 6.48Q75.19 6.14 74.66 5.95Q74.14 5.76 73.63 5.76L73.63 5.76Q72.10 5.76 71.36 7.10Q70.63 8.45 70.63 10.68L70.63 10.68Q70.63 12.89 71.33 14.24Q72.02 15.60 73.39 15.60L73.39 15.60ZM86.16 16.56Q84.53 16.56 83.33 15.78Q82.13 15 81.50 13.66Q80.88 12.31 80.88 10.68L80.88 10.68Q80.88 9.05 81.50 7.70Q82.13 6.36 83.33 5.58Q84.53 4.80 86.16 4.80L86.16 4.80Q87.79 4.80 88.99 5.58Q90.19 6.36 90.82 7.70Q91.44 9.05 91.44 10.68L91.44 10.68Q91.44 12.31 90.82 13.66Q90.19 15 88.99 15.78Q87.79 16.56 86.16 16.56L86.16 16.56ZM86.16 15.60Q87.05 15.60 87.73 14.95Q88.42 14.30 88.79 13.18Q89.16 12.05 89.16 10.68L89.16 10.68Q89.16 9.31 88.79 8.18Q88.42 7.06 87.73 6.41Q87.05 5.76 86.16 5.76L86.16 5.76Q85.27 5.76 84.59 6.41Q83.90 7.06 83.53 8.18Q83.16 9.31 83.16 10.68L83.16 10.68Q83.16 12.05 83.53 13.18Q83.90 14.30 84.59 14.95Q85.27 15.60 86.16 15.60L86.16 15.60ZM112.44 16.56L102.12 3.72L102.12 16.32L101.16 16.32L101.16 3.36Q101.16 2.21 100.67 1.58Q100.18 0.96 99.00 0.96L99.00 0.96L98.76 0.96L98.76 0.48L100.32 0.48Q101.42 0.48 102.19 0.84Q102.96 1.20 103.56 1.92L103.56 1.92L111.96 12.36L111.96 0.48L112.92 0.48L112.92 16.56L112.44 16.56ZM119.38 16.56Q118.61 16.56 117.82 16.24Q117.02 15.91 116.46 15.17Q115.90 14.42 115.90 13.20L115.90 13.20Q115.90 11.38 117.59 10.61Q119.28 9.84 122.02 9.84L122.02 9.84L122.74 9.84Q122.74 7.49 122.09 6.62Q121.44 5.76 120.22 5.76L120.22 5.76Q119.14 5.76 118.49 6.22Q117.84 6.67 117.58 7.80L117.58 7.80L116.50 7.80Q116.50 6.98 116.59 6.52Q116.69 6.05 117.10 5.64L117.10 5.64Q117.53 5.21 118.52 5.00Q119.52 4.80 120.70 4.80L120.70 4.80Q122.64 4.80 123.77 5.84Q124.90 6.89 124.90 9.84L124.90 9.84L124.90 16.32L123.70 16.32L122.86 15.24L122.74 15.24Q122.30 15.79 121.46 16.18Q120.62 16.56 119.38 16.56L119.38 16.56ZM120.46 15.48Q121.25 15.48 121.78 15.10Q122.30 14.71 122.74 14.04L122.74 14.04L122.74 10.80L122.02 10.80Q120.24 10.80 119.21 11.46Q118.18 12.12 118.18 13.20L118.18 13.20Q118.18 14.30 118.84 14.89Q119.50 15.48 120.46 15.48L120.46 15.48ZM131.57 16.56Q130.22 16.56 129.46 15.79Q128.69 15.02 128.69 13.44L128.69 13.44L128.69 6L127.01 6L127.01 5.04L128.69 5.04L128.69 2.88L129.89 1.44L130.85 1.44L130.85 5.04L133.73 5.04L133.73 6L130.85 6L130.85 13.44Q130.85 15.60 132.53 15.60L132.53 15.60Q133.10 15.60 133.50 15.48Q133.90 15.36 134.33 15.12L134.33 15.12L134.57 15.60Q134.02 16.01 133.34 16.28Q132.67 16.56 131.57 16.56L131.57 16.56ZM137.62 3.60Q137.06 3.60 136.67 3.14Q136.27 2.69 136.27 2.06L136.27 2.06Q136.27 1.56 136.57 1.27Q136.87 0.98 137.38 0.98L137.38 0.98Q137.93 0.98 138.32 1.44Q138.72 1.90 138.72 2.52L138.72 2.52Q138.72 3.02 138.42 3.31Q138.12 3.60 137.62 3.60L137.62 3.60ZM136.70 16.32L136.70 7.92Q136.70 6.70 136.37 6.11Q136.03 5.52 135.02 5.52L135.02 5.52L134.54 5.52L134.54 5.04L136.70 5.04Q137.59 5.04 138.04 5.27Q138.48 5.50 138.67 6.10Q138.86 6.70 138.86 7.92L138.86 7.92L138.86 16.32L136.70 16.32ZM146.88 16.56Q145.25 16.56 144.05 15.78Q142.85 15 142.22 13.66Q141.60 12.31 141.60 10.68L141.60 10.68Q141.60 9.05 142.22 7.70Q142.85 6.36 144.05 5.58Q145.25 4.80 146.88 4.80L146.88 4.80Q148.51 4.80 149.71 5.58Q150.91 6.36 151.54 7.70Q152.16 9.05 152.16 10.68L152.16 10.68Q152.16 12.31 151.54 13.66Q150.91 15 149.71 15.78Q148.51 16.56 146.88 16.56L146.88 16.56ZM146.88 15.60Q147.77 15.60 148.45 14.95Q149.14 14.30 149.51 13.18Q149.88 12.05 149.88 10.68L149.88 10.68Q149.88 9.31 149.51 8.18Q149.14 7.06 148.45 6.41Q147.77 5.76 146.88 5.76L146.88 5.76Q145.99 5.76 145.31 6.41Q144.62 7.06 144.25 8.18Q143.88 9.31 143.88 10.68L143.88 10.68Q143.88 12.05 144.25 13.18Q144.62 14.30 145.31 14.95Q145.99 15.60 146.88 15.60L146.88 15.60ZM155.33 16.32L155.33 7.92Q155.33 6.70 154.99 6.11Q154.66 5.52 153.65 5.52L153.65 5.52L153.17 5.52L153.17 5.04L155.33 5.04Q156.22 5.04 156.68 5.28Q157.15 5.52 157.37 6L157.37 6L157.49 6Q157.99 5.50 158.80 5.15Q159.60 4.80 160.61 4.80L160.61 4.80Q162.41 4.80 163.55 5.76Q164.69 6.72 164.69 9.12L164.69 9.12L164.69 16.32L162.53 16.32L162.53 9.12Q162.53 7.44 161.77 6.66Q161.02 5.88 159.89 5.88L159.89 5.88Q158.62 5.88 157.49 7.15L157.49 7.15L157.49 16.32L155.33 16.32ZM170.71 16.56Q169.94 16.56 169.15 16.24Q168.36 15.91 167.80 15.17Q167.23 14.42 167.23 13.20L167.23 13.20Q167.23 11.38 168.92 10.61Q170.62 9.84 173.35 9.84L173.35 9.84L174.07 9.84Q174.07 7.49 173.42 6.62Q172.78 5.76 171.55 5.76L171.55 5.76Q170.47 5.76 169.82 6.22Q169.18 6.67 168.91 7.80L168.91 7.80L167.83 7.80Q167.83 6.98 167.93 6.52Q168.02 6.05 168.43 5.64L168.43 5.64Q168.86 5.21 169.86 5.00Q170.86 4.80 172.03 4.80L172.03 4.80Q173.98 4.80 175.10 5.84Q176.23 6.89 176.23 9.84L176.23 9.84L176.23 16.32L175.03 16.32L174.19 15.24L174.07 15.24Q173.64 15.79 172.80 16.18Q171.96 16.56 170.71 16.56L170.71 16.56ZM171.79 15.48Q172.58 15.48 173.11 15.10Q173.64 14.71 174.07 14.04L174.07 14.04L174.07 10.80L173.35 10.80Q171.58 10.80 170.54 11.46Q169.51 12.12 169.51 13.20L169.51 13.20Q169.51 14.30 170.17 14.89Q170.83 15.48 171.79 15.48L171.79 15.48ZM179.66 16.32L179.66 3.36Q179.66 2.14 179.33 1.55Q178.99 0.96 177.98 0.96L177.98 0.96L177.50 0.96L177.50 0.48L179.66 0.48Q180.55 0.48 181.00 0.71Q181.44 0.94 181.63 1.54Q181.82 2.14 181.82 3.36L181.82 3.36L181.82 16.32L179.66 16.32ZM209.83 17.40Q208.10 17.40 207.14 16.87Q206.18 16.34 205.79 15.23Q205.39 14.11 205.39 12.24L205.39 12.24L205.39 3L199.39 16.32L198.91 16.32L192.67 2.76L192.67 16.32L191.71 16.32L191.71 0.48L193.99 0.48L199.75 12.96L205.39 0.48L207.55 0.48L207.55 12.24Q207.55 14.47 208.12 15.70Q208.68 16.92 209.83 16.92L209.83 16.92L209.83 17.40ZM216.00 16.56Q214.20 16.56 213.06 15.60Q211.92 14.64 211.92 12.24L211.92 12.24L211.92 7.92Q211.92 6.70 211.58 6.11Q211.25 5.52 210.24 5.52L210.24 5.52L210.00 5.52L210.00 5.04L211.92 5.04Q212.81 5.04 213.25 5.27Q213.70 5.50 213.89 6.10Q214.08 6.70 214.08 7.92L214.08 7.92L214.08 12.24Q214.08 13.92 214.84 14.70Q215.59 15.48 216.72 15.48L216.72 15.48Q217.99 15.48 219.12 14.21L219.12 14.21L219.12 5.04L221.28 5.04L221.28 16.32L220.08 16.32L219.24 15.36L219.12 15.36Q218.62 15.86 217.81 16.21Q217.01 16.56 216.00 16.56L216.00 16.56ZM228.50 16.56Q225.74 16.56 224.78 15.60L224.78 15.60Q224.38 15.19 224.28 14.68Q224.18 14.16 224.18 13.08L224.18 13.08L224.66 13.08Q224.88 14.28 225.71 14.94Q226.54 15.60 228.02 15.60L228.02 15.60Q229.34 15.60 230.00 15.14Q230.66 14.69 230.66 13.92L230.66 13.92Q230.66 13.22 230.15 12.72Q229.63 12.22 228.50 11.76L228.50 11.76L227.06 11.16Q225.62 10.58 224.90 9.82Q224.18 9.05 224.18 7.92L224.18 7.92Q224.18 6.46 225.29 5.63Q226.39 4.80 228.14 4.80L228.14 4.80Q230.78 4.80 231.74 5.76L231.74 5.76Q232.15 6.17 232.25 6.67Q232.34 7.18 232.34 8.28L232.34 8.28L231.86 8.28Q231.67 7.08 230.86 6.42Q230.04 5.76 228.62 5.76L228.62 5.76Q227.50 5.76 226.86 6.23Q226.22 6.70 226.22 7.44L226.22 7.44Q226.22 8.69 228.14 9.48L228.14 9.48L229.58 10.08Q231.22 10.75 231.96 11.51Q232.70 12.26 232.70 13.44L232.70 13.44Q232.70 14.90 231.53 15.73Q230.35 16.56 228.50 16.56L228.50 16.56ZM239.83 16.56Q238.20 16.56 237.07 15.78Q235.94 15 235.37 13.67Q234.79 12.34 234.79 10.68L234.79 10.68Q234.79 9.05 235.37 7.70Q235.94 6.36 237.04 5.58Q238.13 4.80 239.59 4.80L239.59 4.80Q242.02 4.80 243.20 6.16Q244.39 7.51 244.39 10.08L244.39 10.08L244.34 11.04L237.07 11.04Q237.07 13.06 237.94 14.33Q238.80 15.60 240.31 15.60L240.31 15.60Q241.44 15.60 242.22 15.12Q243.00 14.64 243.67 13.68L243.67 13.68L244.15 14.04Q243.36 15.36 242.30 15.96Q241.25 16.56 239.83 16.56L239.83 16.56ZM237.07 10.08L242.11 10.08Q242.11 7.97 241.49 6.86Q240.86 5.76 239.59 5.76L239.59 5.76Q238.87 5.76 238.30 6.32Q237.72 6.89 237.40 7.87Q237.07 8.86 237.07 10.08L237.07 10.08ZM251.26 16.56Q249.46 16.56 248.32 15.60Q247.18 14.64 247.18 12.24L247.18 12.24L247.18 7.92Q247.18 6.70 246.84 6.11Q246.50 5.52 245.50 5.52L245.50 5.52L245.26 5.52L245.26 5.04L247.18 5.04Q248.06 5.04 248.51 5.27Q248.95 5.50 249.14 6.10Q249.34 6.70 249.34 7.92L249.34 7.92L249.34 12.24Q249.34 13.92 250.09 14.70Q250.85 15.48 251.98 15.48L251.98 15.48Q253.25 15.48 254.38 14.21L254.38 14.21L254.38 5.04L256.54 5.04L256.54 16.32L255.34 16.32L254.50 15.36L254.38 15.36Q253.87 15.86 253.07 16.21Q252.26 16.56 251.26 16.56L251.26 16.56ZM260.35 16.32L260.35 7.92Q260.35 6.70 260.02 6.11Q259.68 5.52 258.67 5.52L258.67 5.52L258.19 5.52L258.19 5.04L260.35 5.04Q261.24 5.04 261.71 5.28Q262.18 5.52 262.39 6L262.39 6L262.51 6Q263.02 5.50 263.82 5.15Q264.62 4.80 265.63 4.80L265.63 4.80Q266.64 4.80 267.36 5.17Q268.08 5.54 268.51 6.48L268.51 6.48Q269.14 5.69 270.11 5.24Q271.08 4.80 272.11 4.80L272.11 4.80Q273.65 4.80 274.56 5.76Q275.47 6.72 275.47 9.12L275.47 9.12L275.47 16.32L273.31 16.32L273.31 9.12Q273.31 7.39 272.83 6.64Q272.35 5.88 271.39 5.88L271.39 5.88Q270.72 5.88 269.98 6.37Q269.23 6.86 268.87 7.44L268.87 7.44Q268.99 7.80 268.99 9.12L268.99 9.12L268.99 16.32L266.83 16.32L266.83 9.12Q266.83 7.39 266.35 6.64Q265.87 5.88 264.91 5.88L264.91 5.88Q263.64 5.88 262.51 7.15L262.51 7.15L262.51 16.32L260.35 16.32Z" transform="translate(36, 9.3)"></path></svg>