<?xml version="1.0" standalone="no"?>
<svg xmlns="http://www.w3.org/2000/svg" viewBox="0 0 100.494 116.04" width="100.494" height="116.04"><polygon fill="none" stroke="#000000" stroke-width="3" points="98.994,29.76 98.994,86.28 50.247,114.54 1.5,86.28 1.5,29.76 50.247,1.5"></polygon><g fill="#031000" color="#031000" transform="translate(28.247 22.5) scale(0.44)"><svg width="100.0" height="100.0" x="0.0" y="0.0" viewBox="0 0 100 100"><path fill="currentColor" d="M50.627,21.293c-1.133-3.25-3.831-5.541-6.991-6.355c0.167-1,0.124-2.051-0.235-3.081  c-1.162-3.328-4.863-5.103-8.271-3.971c-1.522,0.508-2.703,1.526-3.466,2.779c-2.586-3.123-6.973-4.507-11.09-3.138  c-4.755,1.583-7.5,6.289-6.68,10.973c-0.819-0.046-1.659,0.053-2.48,0.326c-3.405,1.132-5.225,4.752-4.064,8.078  c0.721,2.062,2.418,3.525,4.416,4.074c-1.143,1.017-1.63,2.629-1.101,4.151c0.711,2.04,2.982,3.126,5.068,2.431  c0.214-0.071,0.407-0.167,0.602-0.269c1.611,3.745,5.93,5.688,9.927,4.358c1.648-0.549,2.986-1.58,3.923-2.871  c1.291,3.102,4.827,4.731,8.111,3.637c3.408-1.135,5.227-4.754,4.066-8.082c-0.012-0.027-0.029-0.048-0.039-0.08  c0.67-0.082,1.345-0.231,2.011-0.451C49.605,32.044,52.426,26.447,50.627,21.293"></path><path fill="currentColor" d="M35,45v-1.036c-2.249-0.118-3.688-1.028-4.58-2.964c-0.864,1.074-2.493,1.596-4.013,2.055  c-0.465,0.138-0.94,0.232-1.407,0.289V45l-2,51h14L35,45z"></path><path fill="currentColor" d="M61,23l11,71h2V68c0,0,17-8,20,17l1,10h2V69c0,0,2-11-23-18L64,16l-13,3l1,3L61,23z"></path><polygon fill="currentColor" points="62.667,17 61.833,13 62.667,13 63.5,17 "></polygon><circle fill="currentColor" cx="62.25" cy="13.25" r="1.25"></circle><polygon fill="currentColor" points="62.058,17.277 59.03,14.532 59.704,14.042 62.731,16.787 "></polygon><circle fill="currentColor" cx="59.515" cy="14.489" r="1.25"></circle></svg></g><path fill="#031000" fill-rule="nonzero" d="M7.28 15.12L7.28 15.12L7.28 13.58L9.24 13.58L9.24 15.12Q9.24 17.00 8.09 18.02Q6.94 19.04 4.65 19.04Q2.35 19.04 1.18 18.02Q0 17.00 0 15.12L0 15.12L0 3.92Q0 2.04 1.15 1.02Q2.30 0 4.59 0Q6.89 0 8.06 1.02Q9.24 2.04 9.24 3.92L9.24 3.92L9.24 6.58L7.28 6.58L7.28 3.92Q7.28 1.68 4.62 1.68Q1.96 1.68 1.96 3.92L1.96 3.92L1.96 15.12Q1.96 17.36 4.62 17.36Q7.28 17.36 7.28 15.12ZM16.10 4.62L16.10 18.62L14.14 18.62L14.14 0.42L16.10 0.42L22.18 14.42L22.18 0.42L24.14 0.42L24.14 18.62L22.18 18.62L16.10 4.62ZM31.70 3.56L31.70 18.62L29.74 18.62L29.74 0.42L32.68 0.42L35.87 12.43L39.09 0.42L42.03 0.42L42.03 18.62L40.07 18.62L40.07 3.56L36.79 15.82L34.97 15.82L31.70 3.56Z" transform="translate(29.233, 74.5)"></path></svg>